<svg id="Calque_1" data-name="Calque 1" xmlns="http://www.w3.org/2000/svg" viewBox="0 0 598.65 756.83"><path d="M1.35,271.73H300.67V542.66H1.35Z" transform="translate(-1.35 -0.8)" style="fill:#e44332"/><path d="M300.67.8H600V271.73H300.67Z" transform="translate(-1.35 -0.8)" style="fill:#f69e07"/><path d="M1.35.8H300.67V271.73H1.35Z" transform="translate(-1.35 -0.8)" style="fill:#53b9e7"/><path d="M300.67,271.73H600V542.66H300.67Z" transform="translate(-1.35 -0.8)" style="fill:#81b53e"/><path d="M570.34,271.73H558.17c0,50.87-88.56,129.8-247.1,135.13V136.43c183.63,4.06,247.1,93.3,247.1,93.3h.08c-18.33-43.1-74.7-113.92-247.18-117.55V82h27.8V61.47H262.48V82h27.8v30.08c-191.83,2-245.92,90.43-261,134.79a81.46,81.46,0,0,0-.68,50.2C42.5,342,94.9,431.11,290.28,434.15v30.09h-27.8v20.53h76.39V464.24h-27.8V434.15C572.37,430,570.34,271.73,570.34,271.73ZM290.28,407.11C123.38,405.93,43.6,318.63,43.6,278s53.92-139.1,246.68-141.72Z" transform="translate(-1.35 -0.8)" style="fill:#fff"/><path d="M9.76,756.49h7.61V737.38H28.75V731H17.31v-12.2H29.69V712H9.76v44.52ZM99.5,717.25a14.73,14.73,0,0,0-5.06-4.74,14.4,14.4,0,0,0-13.46,0,14.73,14.73,0,0,0-5.06,4.74,23,23,0,0,0-3.15,7.36,39.6,39.6,0,0,0-1.07,9.56,38.93,38.93,0,0,0,1.1,9.59A23.78,23.78,0,0,0,76,751.15a15.25,15.25,0,0,0,5,4.78,14.11,14.11,0,0,0,13.43,0,15.15,15.15,0,0,0,5.06-4.78,23.54,23.54,0,0,0,3.17-7.39,42.22,42.22,0,0,0,0-19.15A23.66,23.66,0,0,0,99.5,717.25Zm-4,23.3a20.23,20.23,0,0,1-1.55,5.19,9.66,9.66,0,0,1-2.58,3.46,5.85,5.85,0,0,1-7.23,0,9.9,9.9,0,0,1-2.58-3.46A19.74,19.74,0,0,1,80,740.55a40.22,40.22,0,0,1,0-12.77,19.31,19.31,0,0,1,1.53-5.15,10,10,0,0,1,2.58-3.43A5.55,5.55,0,0,1,87.74,718a5.44,5.44,0,0,1,3.55,1.25,9.72,9.72,0,0,1,2.58,3.43,20.44,20.44,0,0,1,1.57,5.15,36,36,0,0,1,.54,6.39A39,39,0,0,1,95.48,740.55Zm73.79-5.72a9.43,9.43,0,0,0,2.23-2.23,12.55,12.55,0,0,0,1.67-3.36,14.51,14.51,0,0,0,.65-4.56,15.6,15.6,0,0,0-.94-5.73,10.62,10.62,0,0,0-2.61-4,10.16,10.16,0,0,0-4-2.3,17.15,17.15,0,0,0-5.09-.72h-12.7v44.52h7.29v-19H160l6.92,19h7.92l-8-20.49a7.78,7.78,0,0,0,2.42-1.17Zm-4.66-4.59a6.3,6.3,0,0,1-4.56,1.73h-4.27V718.26h4.27a8.69,8.69,0,0,1,2.27.31,5.63,5.63,0,0,1,2,1.07,5.47,5.47,0,0,1,1.48,2.08,8.44,8.44,0,0,1,.57,3.33A6.89,6.89,0,0,1,164.61,730.24Zm72.72,14.3h-.25L228.53,712H218.41v44.52h6.85l-.13-34.2h.19l8.75,34.2H240l8.92-34.2h.2l-.13,34.2h7.35V712H245.7l-8.37,32.57ZM309.65,712l-11.07,44.52h7.55l2.27-9.43h11.69l2.2,9.43h7.86L319.27,712Zm-.31,29.18,4.84-22.08h.25l4.72,22.08Zm57.34-22.76h8.37v38.1h7.42v-38.1h8.36V712H366.68v6.42Zm66.23,38.1h7.54V712h-7.54ZM513,717.25a14.76,14.76,0,0,0-5.07-4.74,14.38,14.38,0,0,0-13.45,0,14.84,14.84,0,0,0-5.07,4.74,23.4,23.4,0,0,0-3.14,7.36,39.6,39.6,0,0,0-1.07,9.56,38.44,38.44,0,0,0,1.11,9.59,23.31,23.31,0,0,0,3.17,7.39,15.25,15.25,0,0,0,5,4.78,14.09,14.09,0,0,0,13.42,0,15.17,15.17,0,0,0,5.07-4.78,23.78,23.78,0,0,0,3.18-7.39,42.6,42.6,0,0,0,0-19.15,23.91,23.91,0,0,0-3.18-7.36Zm-4,23.3a20.24,20.24,0,0,1-1.54,5.19,9.76,9.76,0,0,1-2.57,3.46,5.87,5.87,0,0,1-7.24,0,9.64,9.64,0,0,1-2.57-3.46,19.72,19.72,0,0,1-1.55-5.19,41,41,0,0,1,0-12.77,19.3,19.3,0,0,1,1.55-5.15,9.7,9.7,0,0,1,2.57-3.43,5.55,5.55,0,0,1,3.62-1.25,5.44,5.44,0,0,1,3.55,1.25,9.83,9.83,0,0,1,2.58,3.43,20,20,0,0,1,1.57,5.15,36,36,0,0,1,.53,6.39A38,38,0,0,1,509,740.55Zm74.33,3.05h-.18L570.62,712H562v44.52h6.79l-.13-31.44h.19l12.64,31.44h8.3V712h-6.54l.06,31.63Z" transform="translate(-1.35 -0.8)" style="fill:#676766"/><path d="M188.67,628.8H134.31v50.42H194.9v15.14H116.26V554.52h75.52v15.14H134.31v44.2h54.36Z" transform="translate(-1.35 -0.8)" style="fill:#666766"/><path d="M259.84,556.18a208.24,208.24,0,0,1,34.65-2.7c17.84,0,30.91,4.15,39.21,11.62,7.68,6.64,12.24,16.81,12.24,29.25,0,12.66-3.73,22.62-10.78,29.88-9.55,10.17-25.11,15.36-42.75,15.36-5.39,0-10.37-.21-14.52-1.25v56H259.84Zm18.05,67.43a60.41,60.41,0,0,0,14.94,1.45c21.78,0,35.06-10.58,35.06-29.88,0-18.46-13.07-27.38-33-27.38-7.88,0-13.9.62-17,1.45Z" transform="translate(-1.35 -0.8)" style="fill:#666766"/><path d="M416.91,650.38l-14.53,44H383.71l47.51-139.84H453l47.72,139.84h-19.3l-14.93-44Zm45.85-14.11L449.07,596c-3.12-9.13-5.19-17.43-7.27-25.52h-.41c-2.08,8.3-4.36,16.81-7.06,25.32l-13.69,40.46Z" transform="translate(-1.35 -0.8)" style="fill:#666766"/></svg>