<?xml version="1.0" encoding="UTF-8"?> <svg xmlns="http://www.w3.org/2000/svg" viewBox="0 0 600 768.315"><path fill="#e44332" d="M.349 266.729h294.683v266.729H.349z"></path><path fill="#f69e07" d="M295.032 0h294.683v266.729H295.032z"></path><path fill="#53b9e7" d="M.349 0h294.683v266.729H.349z"></path><path fill="#81b53e" d="M295.032 266.729h294.683v266.729H295.032z"></path><path d="M38.495 552.442L.349 709.452h35.48l6.436-28.607h35.26l6.431 28.607h37.033l-37.922-157.01H38.495zm7.759 100.9l13.308-66.752h.886l12.642 66.753H46.254zm179.852 34.823c5.326-6.8 9.278-15.006 11.866-24.618 2.584-9.611 3.88-20.328 3.88-32.157 0-12.122-1.296-23.025-3.88-32.71-2.588-9.685-6.54-17.964-11.866-24.837-5.322-6.874-12.085-12.163-20.291-15.86-8.202-3.688-17.928-5.54-29.16-5.54h-44.133v157.009h44.133c11.232 0 20.958-1.844 29.16-5.541 8.206-3.697 14.97-8.945 20.291-15.746zm-28.05-21.847c-5.4 8.06-12.387 12.09-20.958 12.09h-8.649v-94.921h8.649c8.571 0 15.559 4.03 20.957 12.09 5.395 8.059 8.093 19.994 8.093 35.813 0 15.226-2.698 26.868-8.093 34.928zm139.224-26.942c2.503-.885 5.078-2.364 7.735-4.436 2.648-2.071 5.045-4.728 7.182-7.986 2.137-3.25 3.867-7.166 5.2-11.748 1.324-4.583 1.982-9.758 1.982-15.527 0-15.672-4.2-27.461-12.61-35.375-8.408-7.905-20.213-11.862-35.398-11.862h-50.227v157.01h34.152v-62.536h10.387l20.994 62.536h37.366l-26.763-70.076zm-18.37-22.286c-3.77 3.177-8.165 4.762-13.19 4.762h-10.424v-39.69h11.09c2.068 0 4.172.26 6.317.772 2.145.52 4.103 1.52 5.874 2.998 1.78 1.479 3.217 3.47 4.322 5.988 1.114 2.51 1.666 5.76 1.666 9.75 0 7.1-1.885 12.236-5.655 15.42zm128.728-64.648h-44.572l-38.146 157.01h35.48l6.436-28.607h35.26l6.427 28.607h37.04l-37.925-157.01zm-36.813 100.9l13.308-66.752h.886l12.642 66.753h-26.836zM600 709.453l-26.763-70.076c2.503-.885 5.078-2.364 7.735-4.436 2.649-2.071 5.045-4.728 7.182-7.986 2.137-3.25 3.868-7.166 5.2-11.748 1.324-4.583 1.982-9.758 1.982-15.527 0-15.672-4.2-27.461-12.61-35.375-8.408-7.905-20.213-11.862-35.398-11.862H497.1v157.01h34.148v-62.536h10.391l20.995 62.536H600zm-45.133-92.362c-3.77 3.177-8.173 4.762-13.194 4.762h-10.424v-39.69h11.09c2.064 0 4.176.26 6.321.772 2.137.52 4.103 1.52 5.874 2.998s3.218 3.47 4.323 5.988c1.113 2.51 1.665 5.76 1.665 9.75 0 7.1-1.885 12.236-5.655 15.42zM0 767.161h7.739V747.72h11.573v-6.524H7.674v-12.406H20.27v-6.906H0v45.278zm91.265-39.908c-1.406-2.088-3.124-3.697-5.147-4.826-2.027-1.13-4.298-1.698-6.813-1.698-2.56 0-4.85.569-6.873 1.698-2.028 1.13-3.742 2.738-5.151 4.826-1.406 2.088-2.474 4.582-3.198 7.483-.723 2.9-1.088 6.142-1.088 9.717 0 3.583.373 6.841 1.121 9.758.747 2.917 1.824 5.427 3.23 7.515 1.405 2.088 3.111 3.705 5.118 4.859 2.003 1.153 4.282 1.73 6.841 1.73 2.515 0 4.786-.577 6.813-1.73 2.023-1.154 3.741-2.77 5.147-4.859 1.41-2.088 2.486-4.598 3.23-7.515.747-2.917 1.12-6.175 1.12-9.758 0-3.575-.373-6.817-1.12-9.717-.744-2.9-1.82-5.395-3.23-7.483zm-4.091 23.692c-.341 2.03-.865 3.786-1.568 5.28-.703 1.496-1.576 2.666-2.625 3.519-1.044.853-2.266 1.275-3.676 1.275-1.406 0-2.632-.422-3.676-1.275s-1.918-2.023-2.625-3.518c-.702-1.495-1.222-3.25-1.564-5.281-.34-2.023-.511-4.185-.511-6.492 0-2.3.17-4.46.511-6.492.342-2.023.862-3.77 1.564-5.24.707-1.47 1.58-2.632 2.625-3.486s2.27-1.275 3.676-1.275c1.365 0 2.567.422 3.616 1.275 1.044.854 1.917 2.015 2.62 3.486.703 1.47 1.235 3.217 1.6 5.24.362 2.032.545 4.193.545 6.492 0 2.307-.17 4.469-.512 6.492zm75.052-5.818c.832-.576 1.588-1.332 2.27-2.266.683-.943 1.248-2.08 1.694-3.42.447-1.35.67-2.893.67-4.64 0-2.259-.316-4.2-.958-5.826-.638-1.616-1.523-2.957-2.653-4.021-1.129-1.073-2.486-1.845-4.062-2.34-1.576-.488-3.303-.731-5.18-.731H141.09v45.278h7.418V747.85h4.286l7.032 19.312h8.06l-8.121-20.847c.808-.212 1.629-.61 2.462-1.187zm-4.733-4.671c-1.215 1.178-2.762 1.763-4.64 1.763h-4.346v-13.942h4.347a8.65 8.65 0 0 1 2.303.317c.768.219 1.463.576 2.08 1.088.618.512 1.117 1.22 1.503 2.113.382.893.577 2.023.577 3.388 0 2.348-.61 4.103-1.824 5.273zm73.959 14.551h-.256l-8.697-33.124h-10.294v45.278h6.97l-.13-34.79h.192l8.892 34.79h6.012l9.08-34.79h.195l-.13 34.79h7.482v-45.278h-10.81l-8.506 33.124zm73.553-33.124l-11.257 45.278h7.678l2.303-9.595h11.89l2.243 9.595h7.995l-11.066-45.278h-9.786zm-.317 29.671l4.92-22.449h.26l4.793 22.449h-9.973zm58.323-23.147h8.507v38.754h7.547v-38.754h8.507v-6.524H363.01v6.524zm67.354 38.754h7.67v-45.278h-7.67v45.278zm81.474-39.908c-1.406-2.088-3.12-3.697-5.151-4.826-2.023-1.13-4.29-1.698-6.809-1.698-2.559 0-4.85.569-6.873 1.698-2.023 1.13-3.745 2.738-5.151 4.826-1.406 2.088-2.47 4.582-3.193 7.483-.731 2.9-1.089 6.142-1.089 9.717 0 3.583.374 6.841 1.121 9.758.74 2.917 1.82 5.427 3.226 7.515s3.112 3.705 5.118 4.859c2 1.153 4.282 1.73 6.841 1.73 2.52 0 4.786-.577 6.809-1.73 2.031-1.154 3.745-2.77 5.151-4.859 1.406-2.088 2.486-4.598 3.234-7.515.739-2.917 1.113-6.175 1.113-9.758 0-3.575-.374-6.817-1.113-9.717-.748-2.9-1.828-5.395-3.234-7.483zm-4.095 23.692c-.341 2.03-.861 3.786-1.568 5.28-.699 1.496-1.576 2.666-2.616 3.519-1.048.853-2.275 1.275-3.68 1.275s-2.633-.422-3.681-1.275c-1.04-.853-1.917-2.023-2.616-3.518-.707-1.495-1.227-3.25-1.568-5.281-.341-2.023-.512-4.185-.512-6.492 0-2.3.17-4.46.512-6.492.341-2.023.861-3.77 1.568-5.24.699-1.47 1.576-2.632 2.616-3.486 1.048-.853 2.275-1.275 3.68-1.275 1.365 0 2.568.422 3.616 1.275 1.04.854 1.917 2.015 2.624 3.486.699 1.47 1.235 3.217 1.593 5.24.365 2.032.544 4.193.544 6.492 0 2.307-.17 4.469-.512 6.492zm75.6 3.103h-.186l-12.732-32.165h-8.758v45.278h6.906l-.13-31.978h.195l12.853 31.978h8.442v-45.278h-6.655l.065 32.165z" fill="#7a7c7d"></path><path d="M560.513 266.729h-11.98c0 50.085-87.19 127.79-243.268 133.031V133.53c180.787 3.995 243.267 91.85 243.267 91.85h.083c-18.053-42.43-73.545-112.15-243.35-115.727V79.952h27.372V59.735h-75.21v20.217h27.372v29.618C95.942 111.484 42.696 198.59 27.804 242.269a80.234 80.234 0 0 0-.666 49.419c13.728 44.177 65.31 131.95 257.66 134.945v29.618h-27.371v20.217h75.21v-20.217h-27.372v-29.618C562.51 422.556 560.513 266.73 560.513 266.73zM284.799 400.01c-164.314-1.165-242.852-87.107-242.852-127.125 0-39.934 53.08-136.941 242.852-139.52V400.01z" fill="#fff"></path></svg> 